<?xml version="1.0" standalone="no"?>
<!DOCTYPE svg PUBLIC "-//W3C//DTD SVG 20010904//EN"
 "http://www.w3.org/TR/2001/REC-SVG-20010904/DTD/svg10.dtd">
<svg version="1.0" xmlns="http://www.w3.org/2000/svg"
 width="348.000000pt" height="745.000000pt" viewBox="0 0 348.000000 745.000000"
 preserveAspectRatio="xMidYMid meet">

<g transform="translate(0.000000,745.000000) scale(0.100000,-0.100000)"
fill="#000000" stroke="none">
<path d="M786 6920 c-77 -24 -158 -81 -200 -139 -91 -126 -95 -156 -96 -728
l0 -463 175 0 176 0 99 75 100 76 0 354 0 355 665 0 665 0 0 -670 0 -670 275
0 275 0 0 720 c0 491 -4 736 -11 772 -34 159 -150 283 -304 324 -40 11 -222
14 -905 13 -809 0 -858 -1 -914 -19z"/>
<path d="M493 3278 c3 -2204 -5 -2003 78 -2127 50 -75 130 -134 217 -161 62
-19 95 -20 928 -20 685 0 864 3 864 13 0 6 -46 237 -102 512 l-103 499 -3
-267 -2 -267 -665 0 -665 0 0 1819 0 1819 -97 71 -98 71 -177 0 -177 0 2
-1962z"/>
<path d="M1734 3957 c-2 -7 -3 -114 -2 -237 l3 -225 317 -3 316 -2 4 -63 c4
-58 264 -1417 274 -1426 2 -2 4 0 4 5 0 5 59 311 132 679 l132 670 3 308 4
307 -591 0 c-469 0 -592 -3 -596 -13z"/>
<path d="M2817 1517 c-54 -264 -96 -481 -93 -484 9 -10 101 86 133 139 59 97
64 137 61 499 l-3 324 -98 -478z"/>
</g>
</svg>
